<mxfile host="65bd71144e" scale="1" border="10">
    <diagram id="X3sNGoU-8sC0jHC4KcqI" name="Page-1">
        <mxGraphModel dx="1714" dy="1139" grid="1" gridSize="5" guides="1" tooltips="1" connect="1" arrows="1" fold="1" page="1" pageScale="1" pageWidth="5300" pageHeight="1600" math="0" shadow="0">
            <root>
                <mxCell id="0"/>
                <mxCell id="1" parent="0"/>
                <mxCell id="50" style="edgeStyle=none;html=1;exitX=0.5;exitY=0;exitDx=0;exitDy=0;entryX=0.5;entryY=1;entryDx=0;entryDy=0;endArrow=none;endFill=0;" parent="1" source="48" target="49" edge="1">
                    <mxGeometry relative="1" as="geometry"/>
                </mxCell>
                <object label="%name%&lt;font color=&quot;#ff0000&quot;&gt;%pk%&lt;/font&gt;&lt;br&gt;(%room%)" placeholders="1" name="Behind the Gates of the Citadel" room="6040" tags="nomobs indoors safe nosummon" pk="" healrate="100" manarate="100" sector="Inside" id="48">
                    <mxCell style="rounded=0;whiteSpace=wrap;html=1;" parent="1" vertex="1">
                        <mxGeometry x="220" y="780" width="120" height="60" as="geometry"/>
                    </mxCell>
                </object>
                <mxCell id="52" value="" style="edgeStyle=none;html=1;endArrow=none;endFill=0;" parent="1" source="49" target="51" edge="1">
                    <mxGeometry relative="1" as="geometry"/>
                </mxCell>
                <mxCell id="54" value="" style="edgeStyle=none;html=1;endArrow=none;endFill=0;" parent="1" source="49" target="53" edge="1">
                    <mxGeometry relative="1" as="geometry"/>
                </mxCell>
                <object label="%name%&lt;font color=&quot;#ff0000&quot;&gt;%pk%&lt;/font&gt;&lt;br&gt;(%room%)" placeholders="1" name="Light Hallway" room="6041" tags="indoors nosummon" pk="" healrate="100" manarate="100" sector="Inside" id="49">
                    <mxCell style="rounded=0;whiteSpace=wrap;html=1;" parent="1" vertex="1">
                        <mxGeometry x="220" y="680" width="120" height="60" as="geometry"/>
                    </mxCell>
                </object>
                <mxCell id="62" value="" style="edgeStyle=none;html=1;endArrow=none;endFill=0;" parent="1" source="51" target="61" edge="1">
                    <mxGeometry relative="1" as="geometry"/>
                </mxCell>
                <object label="%name%&lt;font color=&quot;#ff0000&quot;&gt;%pk%&lt;/font&gt;&lt;br&gt;(%room%)" placeholders="1" name="Below the Silver Watchtower" room="6043" tags="indoors nosummon" pk="" healrate="100" manarate="100" sector="Inside" id="51">
                    <mxCell style="rounded=0;whiteSpace=wrap;html=1;" parent="1" vertex="1">
                        <mxGeometry x="380" y="680" width="120" height="60" as="geometry"/>
                    </mxCell>
                </object>
                <mxCell id="56" value="" style="edgeStyle=none;html=1;endArrow=none;endFill=0;" parent="1" source="53" target="55" edge="1">
                    <mxGeometry relative="1" as="geometry"/>
                </mxCell>
                <object label="%name%&lt;font color=&quot;#ff0000&quot;&gt;%pk%&lt;/font&gt;&lt;br&gt;(%room%)" placeholders="1" name="Below the Marble Watchtower" room="6086" tags="indoors nosummon" pk="" healrate="100" manarate="100" sector="Inside" id="53">
                    <mxCell style="rounded=0;whiteSpace=wrap;html=1;" parent="1" vertex="1">
                        <mxGeometry x="60" y="680" width="120" height="60" as="geometry"/>
                    </mxCell>
                </object>
                <mxCell id="58" value="" style="edgeStyle=none;html=1;endArrow=none;endFill=0;" parent="1" source="55" target="57" edge="1">
                    <mxGeometry relative="1" as="geometry"/>
                </mxCell>
                <object label="%name%&lt;font color=&quot;#ff0000&quot;&gt;%pk%&lt;/font&gt;&lt;br&gt;(%room%)" placeholders="1" name="Light Hallway" room="6042" tags="indoors nosummon" pk="" healrate="100" manarate="100" sector="Inside" id="55">
                    <mxCell style="rounded=0;whiteSpace=wrap;html=1;" parent="1" vertex="1">
                        <mxGeometry x="60" y="580" width="120" height="60" as="geometry"/>
                    </mxCell>
                </object>
                <mxCell id="60" value="" style="edgeStyle=none;html=1;endArrow=none;endFill=0;" parent="1" source="57" target="59" edge="1">
                    <mxGeometry relative="1" as="geometry"/>
                </mxCell>
                <mxCell id="75" value="" style="edgeStyle=none;html=1;endArrow=none;endFill=0;" parent="1" source="57" target="74" edge="1">
                    <mxGeometry relative="1" as="geometry"/>
                </mxCell>
                <object label="%name%&lt;font color=&quot;#ff0000&quot;&gt;%pk%&lt;/font&gt;&lt;br&gt;(%room%)" placeholders="1" name="Light Hallway" room="6044" tags="indoors nosummon" pk="" healrate="100" manarate="100" sector="Inside" id="57">
                    <mxCell style="rounded=0;whiteSpace=wrap;html=1;" parent="1" vertex="1">
                        <mxGeometry x="60" y="480" width="120" height="60" as="geometry"/>
                    </mxCell>
                </object>
                <object label="%name%&lt;font color=&quot;#ff0000&quot;&gt;%pk%&lt;/font&gt;&lt;br&gt;(%room%)" placeholders="1" name="The Black Fountain" room="6055" tags="nomobs indoors pk nosummon" pk="&#10;[**&gt; PK &lt;**]" healrate="100" manarate="100" sector="Inside" id="59">
                    <mxCell style="rounded=0;whiteSpace=wrap;html=1;" parent="1" vertex="1">
                        <mxGeometry x="220" y="480" width="120" height="60" as="geometry"/>
                    </mxCell>
                </object>
                <mxCell id="64" value="" style="edgeStyle=none;html=1;endArrow=none;endFill=0;" parent="1" source="61" target="63" edge="1">
                    <mxGeometry relative="1" as="geometry"/>
                </mxCell>
                <object label="%name%&lt;font color=&quot;#ff0000&quot;&gt;%pk%&lt;/font&gt;&lt;br&gt;(%room%)" placeholders="1" name="Light Hallway" room="6048" tags="indoors nosummon" pk="" healrate="100" manarate="100" sector="Inside" id="61">
                    <mxCell style="rounded=0;whiteSpace=wrap;html=1;" parent="1" vertex="1">
                        <mxGeometry x="380" y="580" width="120" height="60" as="geometry"/>
                    </mxCell>
                </object>
                <mxCell id="65" value="" style="edgeStyle=none;html=1;endArrow=none;endFill=0;" parent="1" source="63" target="59" edge="1">
                    <mxGeometry relative="1" as="geometry"/>
                </mxCell>
                <mxCell id="67" value="" style="edgeStyle=none;html=1;endArrow=none;endFill=0;" parent="1" source="63" target="66" edge="1">
                    <mxGeometry relative="1" as="geometry"/>
                </mxCell>
                <object label="%name%&lt;font color=&quot;#ff0000&quot;&gt;%pk%&lt;/font&gt;&lt;br&gt;(%room%)" placeholders="1" name="Light Hallway" room="6049" tags="indoors nosummon" pk="" healrate="100" manarate="100" sector="Inside" id="63">
                    <mxCell style="rounded=0;whiteSpace=wrap;html=1;" parent="1" vertex="1">
                        <mxGeometry x="380" y="480" width="120" height="60" as="geometry"/>
                    </mxCell>
                </object>
                <mxCell id="69" value="" style="edgeStyle=none;html=1;endArrow=none;endFill=0;" parent="1" source="66" target="68" edge="1">
                    <mxGeometry relative="1" as="geometry"/>
                </mxCell>
                <object label="%name%&lt;font color=&quot;#ff0000&quot;&gt;%pk%&lt;/font&gt;&lt;br&gt;(%room%)" placeholders="1" name="Light Hallway" room="6050" tags="indoors nosummon" pk="" healrate="100" manarate="100" sector="Inside" id="66">
                    <mxCell style="rounded=0;whiteSpace=wrap;html=1;" parent="1" vertex="1">
                        <mxGeometry x="380" y="380" width="120" height="60" as="geometry"/>
                    </mxCell>
                </object>
                <mxCell id="71" value="" style="edgeStyle=none;html=1;endArrow=none;endFill=0;" parent="1" source="68" target="70" edge="1">
                    <mxGeometry relative="1" as="geometry"/>
                </mxCell>
                <object label="%name%&lt;font color=&quot;#ff0000&quot;&gt;%pk%&lt;/font&gt;&lt;br&gt;(%room%)" placeholders="1" name="Below the Granite Watchtower" room="6058" tags="indoors nosummon" pk="" healrate="100" manarate="100" sector="Inside" id="68">
                    <mxCell style="rounded=0;whiteSpace=wrap;html=1;" parent="1" vertex="1">
                        <mxGeometry x="380" y="280" width="120" height="60" as="geometry"/>
                    </mxCell>
                </object>
                <object label="%name%&lt;font color=&quot;#ff0000&quot;&gt;%pk%&lt;/font&gt;&lt;br&gt;(%room%)" placeholders="1" name="Light Hallway" room="6057" tags="indoors nosummon" pk="" healrate="100" manarate="100" sector="Inside" id="70">
                    <mxCell style="rounded=0;whiteSpace=wrap;html=1;" parent="1" vertex="1">
                        <mxGeometry x="220" y="280" width="120" height="60" as="geometry"/>
                    </mxCell>
                </object>
                <mxCell id="73" value="" style="edgeStyle=none;html=1;endArrow=none;endFill=0;" parent="1" source="72" target="70" edge="1">
                    <mxGeometry relative="1" as="geometry"/>
                </mxCell>
                <object label="%name%&lt;font color=&quot;#ff0000&quot;&gt;%pk%&lt;/font&gt;&lt;br&gt;(%room%)" placeholders="1" name="Below the Obsidian Watchtower" room="6054" tags="indoors nosummon" pk="" healrate="100" manarate="100" sector="Inside" id="72">
                    <mxCell style="rounded=0;whiteSpace=wrap;html=1;" parent="1" vertex="1">
                        <mxGeometry x="60" y="280" width="120" height="60" as="geometry"/>
                    </mxCell>
                </object>
                <mxCell id="76" value="" style="edgeStyle=none;html=1;endArrow=none;endFill=0;" parent="1" source="74" target="72" edge="1">
                    <mxGeometry relative="1" as="geometry"/>
                </mxCell>
                <object label="%name%&lt;font color=&quot;#ff0000&quot;&gt;%pk%&lt;/font&gt;&lt;br&gt;(%room%)" placeholders="1" name="Light Hallway" room="6045" tags="indoors nosummon" pk="" healrate="100" manarate="100" sector="Inside" id="74">
                    <mxCell style="rounded=0;whiteSpace=wrap;html=1;" parent="1" vertex="1">
                        <mxGeometry x="60" y="380" width="120" height="60" as="geometry"/>
                    </mxCell>
                </object>
                <object label="%name%&lt;font color=&quot;#ff0000&quot;&gt;%pk%&lt;/font&gt;&lt;br&gt;(%room%)" placeholders="1" name="The Obsidian Watchtower" room="6056" tags="indoors nosummon" pk="" healrate="100" manarate="100" sector="Inside" id="77">
                    <mxCell style="rounded=0;whiteSpace=wrap;html=1;strokeColor=#000000;strokeWidth=1;" parent="1" vertex="1">
                        <mxGeometry x="220" y="180" width="120" height="60" as="geometry"/>
                    </mxCell>
                </object>
                <mxCell id="79" value="" style="endArrow=none;html=1;rounded=0;shadow=0;sketch=0;fontSize=13;strokeColor=default;jumpStyle=none;jumpSize=6;verticalAlign=middle;horizontal=1;endFill=0;entryX=0;entryY=1;entryDx=0;entryDy=0;exitX=1;exitY=0;exitDx=0;exitDy=0;" parent="1" source="72" target="77" edge="1">
                    <mxGeometry relative="1" as="geometry">
                        <mxPoint x="25" y="415" as="sourcePoint"/>
                        <mxPoint x="65" y="375" as="targetPoint"/>
                    </mxGeometry>
                </mxCell>
                <mxCell id="80" value="&lt;div style=&quot;font-size: 20px;&quot;&gt;|&lt;/div&gt;" style="edgeLabel;resizable=0;html=1;align=center;verticalAlign=middle;fontSize=20;strokeColor=#630000;strokeWidth=1;fillColor=#FF0000;gradientColor=none;horizontal=1;labelBackgroundColor=none;direction=south;rotation=-45;" parent="79" connectable="0" vertex="1">
                    <mxGeometry relative="1" as="geometry">
                        <mxPoint x="-3" as="offset"/>
                    </mxGeometry>
                </mxCell>
                <object label="%name%&lt;font color=&quot;#ff0000&quot;&gt;%pk%&lt;/font&gt;&lt;br&gt;(%room%)" placeholders="1" name="The Granite Watchtower" room="6060" tags="indoors nosummon" pk="" healrate="100" manarate="100" sector="Inside" id="81">
                    <mxCell style="rounded=0;whiteSpace=wrap;html=1;strokeColor=#000000;strokeWidth=1;" parent="1" vertex="1">
                        <mxGeometry x="540" y="180" width="120" height="60" as="geometry"/>
                    </mxCell>
                </object>
                <mxCell id="82" value="" style="endArrow=none;html=1;rounded=0;shadow=0;sketch=0;fontSize=13;strokeColor=default;jumpStyle=none;jumpSize=6;verticalAlign=middle;horizontal=1;endFill=0;entryX=0;entryY=1;entryDx=0;entryDy=0;exitX=1;exitY=0;exitDx=0;exitDy=0;" parent="1" source="68" target="81" edge="1">
                    <mxGeometry relative="1" as="geometry">
                        <mxPoint x="325" y="415" as="sourcePoint"/>
                        <mxPoint x="365" y="375" as="targetPoint"/>
                    </mxGeometry>
                </mxCell>
                <mxCell id="83" value="&lt;div style=&quot;font-size: 20px;&quot;&gt;|&lt;/div&gt;" style="edgeLabel;resizable=0;html=1;align=center;verticalAlign=middle;fontSize=20;strokeColor=#630000;strokeWidth=1;fillColor=#FF0000;gradientColor=none;horizontal=1;labelBackgroundColor=none;direction=south;rotation=-45;" parent="82" connectable="0" vertex="1">
                    <mxGeometry relative="1" as="geometry">
                        <mxPoint x="-3" as="offset"/>
                    </mxGeometry>
                </mxCell>
                <object label="%name%&lt;font color=&quot;#ff0000&quot;&gt;%pk%&lt;/font&gt;&lt;br&gt;(%room%)" placeholders="1" name="The Silver Watchtower" room="6085" tags="indoors nosummon" pk="" healrate="100" manarate="100" sector="Inside" id="84">
                    <mxCell style="rounded=0;whiteSpace=wrap;html=1;strokeColor=#000000;strokeWidth=1;" parent="1" vertex="1">
                        <mxGeometry x="540" y="580" width="120" height="60" as="geometry"/>
                    </mxCell>
                </object>
                <mxCell id="85" value="" style="endArrow=none;html=1;rounded=0;shadow=0;sketch=0;fontSize=13;strokeColor=default;jumpStyle=none;jumpSize=6;verticalAlign=middle;horizontal=1;endFill=0;exitX=1;exitY=0;exitDx=0;exitDy=0;entryX=0;entryY=1;entryDx=0;entryDy=0;" parent="1" source="51" target="84" edge="1">
                    <mxGeometry relative="1" as="geometry">
                        <mxPoint x="325" y="415" as="sourcePoint"/>
                        <mxPoint x="365" y="375" as="targetPoint"/>
                    </mxGeometry>
                </mxCell>
                <mxCell id="86" value="&lt;div style=&quot;font-size: 20px;&quot;&gt;|&lt;/div&gt;" style="edgeLabel;resizable=0;html=1;align=center;verticalAlign=middle;fontSize=20;strokeColor=#630000;strokeWidth=1;fillColor=#FF0000;gradientColor=none;horizontal=1;labelBackgroundColor=none;direction=south;rotation=-45;" parent="85" connectable="0" vertex="1">
                    <mxGeometry relative="1" as="geometry">
                        <mxPoint x="-3" as="offset"/>
                    </mxGeometry>
                </mxCell>
                <object label="%name%&lt;font color=&quot;#ff0000&quot;&gt;%pk%&lt;/font&gt;&lt;br&gt;(%room%)" placeholders="1" name="The Marble Watchtower" room="6085" tags="indoors nosummon" pk="" healrate="100" manarate="100" sector="Inside" id="87">
                    <mxCell style="rounded=0;whiteSpace=wrap;html=1;strokeColor=#000000;strokeWidth=1;" parent="1" vertex="1">
                        <mxGeometry x="220" y="580" width="120" height="60" as="geometry"/>
                    </mxCell>
                </object>
                <mxCell id="88" value="" style="endArrow=none;html=1;rounded=0;shadow=0;sketch=0;fontSize=13;strokeColor=default;jumpStyle=none;jumpSize=6;verticalAlign=middle;horizontal=1;endFill=0;entryX=0;entryY=1;entryDx=0;entryDy=0;exitX=1;exitY=0;exitDx=0;exitDy=0;" parent="1" source="53" target="87" edge="1">
                    <mxGeometry relative="1" as="geometry">
                        <mxPoint x="325" y="415" as="sourcePoint"/>
                        <mxPoint x="365" y="375" as="targetPoint"/>
                    </mxGeometry>
                </mxCell>
                <mxCell id="89" value="&lt;div style=&quot;font-size: 20px;&quot;&gt;|&lt;/div&gt;" style="edgeLabel;resizable=0;html=1;align=center;verticalAlign=middle;fontSize=20;strokeColor=#630000;strokeWidth=1;fillColor=#FF0000;gradientColor=none;horizontal=1;labelBackgroundColor=none;direction=south;rotation=-45;" parent="88" connectable="0" vertex="1">
                    <mxGeometry relative="1" as="geometry">
                        <mxPoint x="-3" as="offset"/>
                    </mxGeometry>
                </mxCell>
                <mxCell id="90" value="" style="sketch=0;pointerEvents=1;shadow=0;dashed=0;html=1;labelPosition=center;verticalLabelPosition=bottom;verticalAlign=top;outlineConnect=0;align=center;shape=mxgraph.office.security.key_permissions;strokeWidth=1;direction=south;strokeColor=#000000;fillColor=#FFFF00;" parent="1" vertex="1">
                    <mxGeometry x="311.9950000000001" y="182.005" width="25" height="11.79" as="geometry"/>
                </mxCell>
                <mxCell id="91" value="" style="sketch=0;pointerEvents=1;shadow=0;dashed=0;html=1;labelPosition=center;verticalLabelPosition=bottom;verticalAlign=top;outlineConnect=0;align=center;shape=mxgraph.office.security.key_permissions;strokeWidth=1;direction=south;strokeColor=#000000;fillColor=#FFFF00;" parent="1" vertex="1">
                    <mxGeometry x="311.9950000000001" y="582.005" width="25" height="11.79" as="geometry"/>
                </mxCell>
                <mxCell id="92" value="" style="sketch=0;pointerEvents=1;shadow=0;dashed=0;html=1;labelPosition=center;verticalLabelPosition=bottom;verticalAlign=top;outlineConnect=0;align=center;shape=mxgraph.office.security.key_permissions;strokeWidth=1;direction=south;strokeColor=#000000;fillColor=#FFFF00;" parent="1" vertex="1">
                    <mxGeometry x="631.9950000000001" y="582.005" width="25" height="11.79" as="geometry"/>
                </mxCell>
                <mxCell id="93" value="" style="sketch=0;pointerEvents=1;shadow=0;dashed=0;html=1;labelPosition=center;verticalLabelPosition=bottom;verticalAlign=top;outlineConnect=0;align=center;shape=mxgraph.office.security.key_permissions;strokeWidth=1;direction=south;strokeColor=#000000;fillColor=#FFFF00;" parent="1" vertex="1">
                    <mxGeometry x="631.9950000000001" y="182.005" width="25" height="11.79" as="geometry"/>
                </mxCell>
                <mxCell id="94" value="" style="endArrow=none;html=1;rounded=0;shadow=0;sketch=0;strokeColor=default;jumpStyle=none;exitX=0;exitY=1;exitDx=0;exitDy=0;endFill=0;entryX=1;entryY=0;entryDx=0;entryDy=0;" parent="1" source="53" target="96" edge="1">
                    <mxGeometry relative="1" as="geometry">
                        <mxPoint x="125" y="505" as="sourcePoint"/>
                        <mxPoint x="35" y="765" as="targetPoint"/>
                    </mxGeometry>
                </mxCell>
                <mxCell id="95" value="" style="shape=mxgraph.office.security.lock_protected;html=1;outlineConnect=0;strokeColor=default;strokeWidth=1;fillColor=#FFFF00;" parent="94" vertex="1">
                    <mxGeometry width="15" height="20" relative="1" as="geometry">
                        <mxPoint x="-7" y="-10" as="offset"/>
                    </mxGeometry>
                </mxCell>
                <mxCell id="96" value="A" style="ellipse;whiteSpace=wrap;html=1;aspect=fixed;strokeColor=#000000;strokeWidth=1;fillColor=none;gradientColor=none;" parent="1" vertex="1">
                    <mxGeometry x="20" y="760" width="20" height="20" as="geometry"/>
                </mxCell>
                <mxCell id="97" value="" style="endArrow=none;html=1;rounded=0;shadow=0;sketch=0;strokeColor=default;jumpStyle=none;entryX=0;entryY=1;entryDx=0;entryDy=0;endFill=0;exitX=1;exitY=0;exitDx=0;exitDy=0;" parent="1" source="99" target="72" edge="1">
                    <mxGeometry relative="1" as="geometry">
                        <mxPoint x="15" y="400" as="sourcePoint"/>
                        <mxPoint x="305" y="505" as="targetPoint"/>
                    </mxGeometry>
                </mxCell>
                <mxCell id="98" value="" style="shape=mxgraph.office.security.lock_protected;html=1;outlineConnect=0;strokeColor=default;strokeWidth=1;fillColor=#FFFF00;" parent="97" vertex="1">
                    <mxGeometry width="15" height="20" relative="1" as="geometry">
                        <mxPoint x="-7" y="-10" as="offset"/>
                    </mxGeometry>
                </mxCell>
                <mxCell id="99" value="B" style="ellipse;whiteSpace=wrap;html=1;aspect=fixed;strokeColor=#000000;strokeWidth=1;fillColor=none;gradientColor=none;" parent="1" vertex="1">
                    <mxGeometry x="20" y="360" width="20" height="20" as="geometry"/>
                </mxCell>
                <mxCell id="100" value="" style="endArrow=none;html=1;rounded=0;shadow=0;sketch=0;strokeColor=default;jumpStyle=none;entryX=0;entryY=1;entryDx=0;entryDy=0;endFill=0;exitX=1;exitY=0;exitDx=0;exitDy=0;" parent="1" source="102" target="68" edge="1">
                    <mxGeometry relative="1" as="geometry">
                        <mxPoint x="315" y="400" as="sourcePoint"/>
                        <mxPoint x="360" y="340" as="targetPoint"/>
                    </mxGeometry>
                </mxCell>
                <mxCell id="101" value="" style="shape=mxgraph.office.security.lock_protected;html=1;outlineConnect=0;strokeColor=default;strokeWidth=1;fillColor=#FFFF00;" parent="100" vertex="1">
                    <mxGeometry width="15" height="20" relative="1" as="geometry">
                        <mxPoint x="-7" y="-10" as="offset"/>
                    </mxGeometry>
                </mxCell>
                <mxCell id="102" value="C" style="ellipse;whiteSpace=wrap;html=1;aspect=fixed;strokeColor=#000000;strokeWidth=1;fillColor=none;gradientColor=none;" parent="1" vertex="1">
                    <mxGeometry x="340" y="360" width="20" height="20" as="geometry"/>
                </mxCell>
                <mxCell id="103" value="" style="endArrow=none;html=1;rounded=0;shadow=0;sketch=0;strokeColor=default;jumpStyle=none;endFill=0;exitX=1;exitY=0;exitDx=0;exitDy=0;entryX=0;entryY=1;entryDx=0;entryDy=0;" parent="1" source="105" target="51" edge="1">
                    <mxGeometry relative="1" as="geometry">
                        <mxPoint x="315" y="800" as="sourcePoint"/>
                        <mxPoint x="415" y="795" as="targetPoint"/>
                    </mxGeometry>
                </mxCell>
                <mxCell id="104" value="" style="shape=mxgraph.office.security.lock_protected;html=1;outlineConnect=0;strokeColor=default;strokeWidth=1;fillColor=#FFFF00;" parent="103" vertex="1">
                    <mxGeometry width="15" height="20" relative="1" as="geometry">
                        <mxPoint x="-7" y="-10" as="offset"/>
                    </mxGeometry>
                </mxCell>
                <mxCell id="105" value="D" style="ellipse;whiteSpace=wrap;html=1;aspect=fixed;strokeColor=#000000;strokeWidth=1;fillColor=none;gradientColor=none;" parent="1" vertex="1">
                    <mxGeometry x="340" y="760" width="20" height="20" as="geometry"/>
                </mxCell>
                <mxCell id="108" value="" style="edgeStyle=none;html=1;endArrow=none;endFill=0;" parent="1" source="106" target="107" edge="1">
                    <mxGeometry relative="1" as="geometry"/>
                </mxCell>
                <object label="%name%&lt;font color=&quot;#ff0000&quot;&gt;%pk%&lt;/font&gt;&lt;br&gt;(%room%)" placeholders="1" name="Southwestern Corner" room="6077" tags="indoors nosummon" pk="" healrate="100" manarate="100" sector="Inside" id="106">
                    <mxCell style="rounded=0;whiteSpace=wrap;html=1;" parent="1" vertex="1">
                        <mxGeometry x="860" y="680" width="120" height="60" as="geometry"/>
                    </mxCell>
                </object>
                <mxCell id="110" value="" style="edgeStyle=none;html=1;endArrow=none;endFill=0;" parent="1" source="107" target="109" edge="1">
                    <mxGeometry relative="1" as="geometry"/>
                </mxCell>
                <object label="%name%&lt;font color=&quot;#ff0000&quot;&gt;%pk%&lt;/font&gt;&lt;br&gt;(%room%)" placeholders="1" name="Dark Hallway" room="6078" tags="indoors nosummon" pk="" healrate="100" manarate="100" sector="Inside" id="107">
                    <mxCell style="rounded=0;whiteSpace=wrap;html=1;" parent="1" vertex="1">
                        <mxGeometry x="860" y="580" width="120" height="60" as="geometry"/>
                    </mxCell>
                </object>
                <mxCell id="115" value="" style="edgeStyle=none;html=1;endArrow=none;endFill=0;" parent="1" source="109" target="114" edge="1">
                    <mxGeometry relative="1" as="geometry"/>
                </mxCell>
                <object label="%name%&lt;font color=&quot;#ff0000&quot;&gt;%pk%&lt;/font&gt;&lt;br&gt;(%room%)" placeholders="1" name="Dark Hallway" room="6079" tags="indoors nosummon" pk="" healrate="100" manarate="100" sector="Inside" id="109">
                    <mxCell style="rounded=0;whiteSpace=wrap;html=1;" parent="1" vertex="1">
                        <mxGeometry x="860" y="480" width="120" height="60" as="geometry"/>
                    </mxCell>
                </object>
                <object label="%name%&lt;font color=&quot;#ff0000&quot;&gt;%pk%&lt;/font&gt;&lt;br&gt;(%room%)" placeholders="1" name="Armoury" room="6063" tags="nomobs indoors norecall nosummon" pk="" healrate="100" manarate="100" sector="Inside" id="111">
                    <mxCell style="rounded=0;whiteSpace=wrap;html=1;" parent="1" vertex="1">
                        <mxGeometry x="700" y="480" width="120" height="60" as="geometry"/>
                    </mxCell>
                </object>
                <mxCell id="112" value="" style="endArrow=none;html=1;rounded=0;shadow=0;sketch=0;fontSize=13;strokeColor=default;jumpStyle=none;jumpSize=6;verticalAlign=middle;horizontal=1;endFill=0;entryX=1;entryY=0.5;entryDx=0;entryDy=0;exitX=0;exitY=0.5;exitDx=0;exitDy=0;" parent="1" source="109" target="111" edge="1">
                    <mxGeometry relative="1" as="geometry">
                        <mxPoint x="585" y="498" as="sourcePoint"/>
                        <mxPoint x="625" y="498" as="targetPoint"/>
                    </mxGeometry>
                </mxCell>
                <mxCell id="113" value="&lt;div style=&quot;font-size: 20px&quot;&gt;X&lt;/div&gt;" style="edgeLabel;resizable=0;html=1;align=center;verticalAlign=middle;fontSize=20;strokeColor=#630000;strokeWidth=1;fillColor=#FF0000;gradientColor=none;horizontal=1;labelBackgroundColor=none;direction=south;rotation=0;" parent="112" connectable="0" vertex="1">
                    <mxGeometry relative="1" as="geometry">
                        <mxPoint x="-2" y="-1" as="offset"/>
                    </mxGeometry>
                </mxCell>
                <mxCell id="117" value="" style="edgeStyle=none;html=1;endArrow=none;endFill=0;" parent="1" source="114" target="116" edge="1">
                    <mxGeometry relative="1" as="geometry"/>
                </mxCell>
                <object label="%name%&lt;font color=&quot;#ff0000&quot;&gt;%pk%&lt;/font&gt;&lt;br&gt;(%room%)" placeholders="1" name="Dark Hallway" room="6080" tags="indoors nosummon" pk="" healrate="100" manarate="100" sector="Inside" id="114">
                    <mxCell style="rounded=0;whiteSpace=wrap;html=1;" parent="1" vertex="1">
                        <mxGeometry x="860" y="380" width="120" height="60" as="geometry"/>
                    </mxCell>
                </object>
                <mxCell id="119" value="" style="edgeStyle=none;html=1;endArrow=none;endFill=0;" parent="1" source="116" target="118" edge="1">
                    <mxGeometry relative="1" as="geometry"/>
                </mxCell>
                <object label="%name%&lt;font color=&quot;#ff0000&quot;&gt;%pk%&lt;/font&gt;&lt;br&gt;(%room%)" placeholders="1" name="Northwestern Corner" room="6082" tags="indoors nosummon" pk="" healrate="100" manarate="100" sector="Inside" id="116">
                    <mxCell style="rounded=0;whiteSpace=wrap;html=1;" parent="1" vertex="1">
                        <mxGeometry x="860" y="280" width="120" height="60" as="geometry"/>
                    </mxCell>
                </object>
                <object label="%name%&lt;font color=&quot;#ff0000&quot;&gt;%pk%&lt;/font&gt;&lt;br&gt;(%room%)" placeholders="1" name="Dark Hallway" room="6081" tags="indoors nosummon" pk="" healrate="100" manarate="100" sector="Inside" id="118">
                    <mxCell style="rounded=0;whiteSpace=wrap;html=1;" parent="1" vertex="1">
                        <mxGeometry x="1020" y="280" width="120" height="60" as="geometry"/>
                    </mxCell>
                </object>
                <mxCell id="121" value="" style="edgeStyle=none;html=1;endArrow=none;endFill=0;" parent="1" source="120" target="118" edge="1">
                    <mxGeometry relative="1" as="geometry"/>
                </mxCell>
                <object label="%name%&lt;font color=&quot;#ff0000&quot;&gt;%pk%&lt;/font&gt;&lt;br&gt;(%room%)" placeholders="1" name="Northeastern Corner" room="6083" tags="indoors nosummon" pk="" healrate="100" manarate="100" sector="Inside" id="120">
                    <mxCell style="rounded=0;whiteSpace=wrap;html=1;" parent="1" vertex="1">
                        <mxGeometry x="1180" y="280" width="120" height="60" as="geometry"/>
                    </mxCell>
                </object>
                <mxCell id="123" value="" style="edgeStyle=none;html=1;endArrow=none;endFill=0;" parent="1" source="122" target="120" edge="1">
                    <mxGeometry relative="1" as="geometry"/>
                </mxCell>
                <object label="%name%&lt;font color=&quot;#ff0000&quot;&gt;%pk%&lt;/font&gt;&lt;br&gt;(%room%)" placeholders="1" name="Dark Hallway" room="6074" tags="indoors nosummon" pk="" healrate="100" manarate="100" sector="Inside" id="122">
                    <mxCell style="rounded=0;whiteSpace=wrap;html=1;" parent="1" vertex="1">
                        <mxGeometry x="1180" y="380" width="120" height="60" as="geometry"/>
                    </mxCell>
                </object>
                <mxCell id="125" value="" style="edgeStyle=none;html=1;endArrow=none;endFill=0;" parent="1" source="124" target="122" edge="1">
                    <mxGeometry relative="1" as="geometry"/>
                </mxCell>
                <object label="%name%&lt;font color=&quot;#ff0000&quot;&gt;%pk%&lt;/font&gt;&lt;br&gt;(%room%)" placeholders="1" name="Dark Hallway" room="6075" tags="indoors nosummon" pk="" healrate="100" manarate="100" sector="Inside" id="124">
                    <mxCell style="rounded=0;whiteSpace=wrap;html=1;" parent="1" vertex="1">
                        <mxGeometry x="1180" y="480" width="120" height="60" as="geometry"/>
                    </mxCell>
                </object>
                <object label="%name%&lt;font color=&quot;#ff0000&quot;&gt;%pk%&lt;/font&gt;&lt;br&gt;(%room%)" placeholders="1" name="Weaponsmith" room="6064" tags="nomobs indoors norecall nosummon" pk="" healrate="100" manarate="100" sector="Inside" id="126">
                    <mxCell style="rounded=0;whiteSpace=wrap;html=1;" parent="1" vertex="1">
                        <mxGeometry x="1340" y="480" width="120" height="60" as="geometry"/>
                    </mxCell>
                </object>
                <mxCell id="127" value="" style="endArrow=none;html=1;rounded=0;shadow=0;sketch=0;fontSize=13;strokeColor=default;jumpStyle=none;jumpSize=6;verticalAlign=middle;horizontal=1;endFill=0;entryX=1;entryY=0.5;entryDx=0;entryDy=0;exitX=0;exitY=0.5;exitDx=0;exitDy=0;" parent="1" source="126" target="124" edge="1">
                    <mxGeometry relative="1" as="geometry">
                        <mxPoint x="1100" y="510" as="sourcePoint"/>
                        <mxPoint x="1060" y="510" as="targetPoint"/>
                    </mxGeometry>
                </mxCell>
                <mxCell id="128" value="&lt;div style=&quot;font-size: 20px&quot;&gt;X&lt;/div&gt;" style="edgeLabel;resizable=0;html=1;align=center;verticalAlign=middle;fontSize=20;strokeColor=#630000;strokeWidth=1;fillColor=#FF0000;gradientColor=none;horizontal=1;labelBackgroundColor=none;direction=south;rotation=0;" parent="127" connectable="0" vertex="1">
                    <mxGeometry relative="1" as="geometry">
                        <mxPoint x="-2" y="-1" as="offset"/>
                    </mxGeometry>
                </mxCell>
                <mxCell id="130" value="" style="edgeStyle=none;html=1;endArrow=none;endFill=0;" parent="1" source="129" target="124" edge="1">
                    <mxGeometry relative="1" as="geometry"/>
                </mxCell>
                <object label="%name%&lt;font color=&quot;#ff0000&quot;&gt;%pk%&lt;/font&gt;&lt;br&gt;(%room%)" placeholders="1" name="Dark Hallway" room="6073" tags="indoors nosummon" pk="" healrate="100" manarate="100" sector="Inside" id="129">
                    <mxCell style="rounded=0;whiteSpace=wrap;html=1;" parent="1" vertex="1">
                        <mxGeometry x="1180" y="580" width="120" height="60" as="geometry"/>
                    </mxCell>
                </object>
                <mxCell id="132" value="" style="edgeStyle=none;html=1;endArrow=none;endFill=0;" parent="1" source="131" target="129" edge="1">
                    <mxGeometry relative="1" as="geometry"/>
                </mxCell>
                <object label="%name%&lt;font color=&quot;#ff0000&quot;&gt;%pk%&lt;/font&gt;&lt;br&gt;(%room%)" placeholders="1" name="Southeastern Corner" room="6070" tags="indoors nosummon" pk="" healrate="100" manarate="100" sector="Inside" id="131">
                    <mxCell style="rounded=0;whiteSpace=wrap;html=1;" parent="1" vertex="1">
                        <mxGeometry x="1180" y="680" width="120" height="60" as="geometry"/>
                    </mxCell>
                </object>
                <mxCell id="134" value="" style="edgeStyle=none;html=1;endArrow=none;endFill=0;" parent="1" source="133" target="131" edge="1">
                    <mxGeometry relative="1" as="geometry"/>
                </mxCell>
                <mxCell id="135" value="" style="edgeStyle=none;html=1;endArrow=none;endFill=0;" parent="1" source="133" target="106" edge="1">
                    <mxGeometry relative="1" as="geometry"/>
                </mxCell>
                <object label="%name%&lt;font color=&quot;#ff0000&quot;&gt;%pk%&lt;/font&gt;&lt;br&gt;(%room%)" placeholders="1" name="Dark Hallway" room="6072" tags="indoors nosummon" pk="" healrate="100" manarate="100" sector="Inside" id="133">
                    <mxCell style="rounded=0;whiteSpace=wrap;html=1;" parent="1" vertex="1">
                        <mxGeometry x="1020" y="680" width="120" height="60" as="geometry"/>
                    </mxCell>
                </object>
                <mxCell id="140" value="" style="edgeStyle=none;html=1;endArrow=none;endFill=0;" parent="1" source="136" target="139" edge="1">
                    <mxGeometry relative="1" as="geometry"/>
                </mxCell>
                <object label="%name%&lt;font color=&quot;#ff0000&quot;&gt;%pk%&lt;/font&gt;&lt;br&gt;(%room%)" placeholders="1" name="The Barracks" room="6059" tags="indoors nosummon" pk="" healrate="100" manarate="100" sector="Inside" id="136">
                    <mxCell style="rounded=0;whiteSpace=wrap;html=1;" parent="1" vertex="1">
                        <mxGeometry x="1020" y="780" width="120" height="60" as="geometry"/>
                    </mxCell>
                </object>
                <mxCell id="137" value="" style="endArrow=none;html=1;rounded=0;shadow=0;sketch=0;fontSize=13;strokeColor=default;jumpStyle=none;jumpSize=6;verticalAlign=middle;horizontal=1;endFill=0;entryX=0.5;entryY=1;entryDx=0;entryDy=0;exitX=0.5;exitY=0;exitDx=0;exitDy=0;" parent="1" source="136" target="133" edge="1">
                    <mxGeometry relative="1" as="geometry">
                        <mxPoint x="1165" y="760" as="sourcePoint"/>
                        <mxPoint x="1125" y="760" as="targetPoint"/>
                    </mxGeometry>
                </mxCell>
                <mxCell id="138" value="&lt;div style=&quot;font-size: 20px&quot;&gt;X&lt;/div&gt;" style="edgeLabel;resizable=0;html=1;align=center;verticalAlign=middle;fontSize=20;strokeColor=#630000;strokeWidth=1;fillColor=#FF0000;gradientColor=none;horizontal=1;labelBackgroundColor=none;direction=south;rotation=90;" parent="137" connectable="0" vertex="1">
                    <mxGeometry relative="1" as="geometry">
                        <mxPoint x="2" y="-1" as="offset"/>
                    </mxGeometry>
                </mxCell>
                <mxCell id="142" style="edgeStyle=none;html=1;exitX=0;exitY=1;exitDx=0;exitDy=0;entryX=1;entryY=0;entryDx=0;entryDy=0;endArrow=classic;endFill=1;" parent="1" source="139" target="141" edge="1">
                    <mxGeometry relative="1" as="geometry"/>
                </mxCell>
                <object label="%name%&lt;font color=&quot;#ff0000&quot;&gt;%pk%&lt;/font&gt;&lt;br&gt;(%room%)" placeholders="1" name="The Outhouse" room="6061" tags="nomobs indoors nosummon" pk="" healrate="100" manarate="100" sector="Inside" id="139">
                    <mxCell style="rounded=0;whiteSpace=wrap;html=1;" parent="1" vertex="1">
                        <mxGeometry x="860" y="780" width="120" height="60" as="geometry"/>
                    </mxCell>
                </object>
                <object label="%name%&lt;font color=&quot;#ff0000&quot;&gt;%pk%&lt;/font&gt;&lt;br&gt;(%room%)" placeholders="1" name="Deep In" room="6062" tags="nomobs indoors prison nosummon" pk="" healrate="100" manarate="100" sector="Inside" id="141">
                    <mxCell style="rounded=0;whiteSpace=wrap;html=1;strokeColor=#FF0000;strokeWidth=2;" parent="1" vertex="1">
                        <mxGeometry x="700" y="880" width="120" height="60" as="geometry"/>
                    </mxCell>
                </object>
                <object label="%name%&lt;font color=&quot;#ff0000&quot;&gt;%pk%&lt;/font&gt;&lt;br&gt;(%room%)" placeholders="1" name="Demon's Cell" room="6066" tags="nomobs indoors nosummon" pk="" healrate="100" manarate="100" sector="Inside" id="143">
                    <mxCell style="rounded=0;whiteSpace=wrap;html=1;" parent="1" vertex="1">
                        <mxGeometry x="1020" y="580" width="120" height="60" as="geometry"/>
                    </mxCell>
                </object>
                <mxCell id="144" value="" style="endArrow=none;html=1;rounded=0;shadow=0;sketch=0;fontSize=13;strokeColor=default;jumpStyle=none;jumpSize=6;verticalAlign=middle;horizontal=1;endFill=0;entryX=1;entryY=0.5;entryDx=0;entryDy=0;exitX=0;exitY=0.5;exitDx=0;exitDy=0;" parent="1" source="129" target="143" edge="1">
                    <mxGeometry relative="1" as="geometry">
                        <mxPoint x="1175" y="510" as="sourcePoint"/>
                        <mxPoint x="1135" y="510" as="targetPoint"/>
                    </mxGeometry>
                </mxCell>
                <mxCell id="145" value="&lt;div style=&quot;font-size: 20px&quot;&gt;X&lt;/div&gt;" style="edgeLabel;resizable=0;html=1;align=center;verticalAlign=middle;fontSize=20;strokeColor=#630000;strokeWidth=1;fillColor=#FF0000;gradientColor=none;horizontal=1;labelBackgroundColor=none;direction=south;rotation=0;" parent="144" connectable="0" vertex="1">
                    <mxGeometry relative="1" as="geometry">
                        <mxPoint x="-2" y="-1" as="offset"/>
                    </mxGeometry>
                </mxCell>
                <mxCell id="146" value="" style="endArrow=none;html=1;rounded=0;shadow=0;sketch=0;fontSize=13;strokeColor=default;jumpStyle=none;jumpSize=6;verticalAlign=middle;horizontal=1;endFill=0;entryX=1;entryY=0.5;entryDx=0;entryDy=0;exitX=0;exitY=0.5;exitDx=0;exitDy=0;" parent="1" source="143" target="107" edge="1">
                    <mxGeometry relative="1" as="geometry">
                        <mxPoint x="1040" y="515" as="sourcePoint"/>
                        <mxPoint x="1000" y="515" as="targetPoint"/>
                    </mxGeometry>
                </mxCell>
                <mxCell id="147" value="&lt;div style=&quot;font-size: 20px&quot;&gt;X&lt;/div&gt;" style="edgeLabel;resizable=0;html=1;align=center;verticalAlign=middle;fontSize=20;strokeColor=#630000;strokeWidth=1;fillColor=#FF0000;gradientColor=none;horizontal=1;labelBackgroundColor=none;direction=south;rotation=0;" parent="146" connectable="0" vertex="1">
                    <mxGeometry relative="1" as="geometry">
                        <mxPoint x="-2" y="-1" as="offset"/>
                    </mxGeometry>
                </mxCell>
                <mxCell id="159" style="edgeStyle=none;html=1;exitX=1;exitY=1;exitDx=0;exitDy=0;entryX=0;entryY=0;entryDx=0;entryDy=0;endArrow=classic;endFill=1;rounded=0;jumpStyle=arc;" parent="1" source="148" target="158" edge="1">
                    <mxGeometry relative="1" as="geometry">
                        <Array as="points">
                            <mxPoint x="1160" y="560"/>
                            <mxPoint x="1320" y="560"/>
                        </Array>
                    </mxGeometry>
                </mxCell>
                <object label="%name%&lt;font color=&quot;#ff0000&quot;&gt;%pk%&lt;/font&gt;&lt;br&gt;(%room%)" placeholders="1" name="Dragon's Cell" room="6076" tags="nomobs indoors nosummon" pk="" healrate="100" manarate="100" sector="Inside" id="148">
                    <mxCell style="rounded=0;whiteSpace=wrap;html=1;" parent="1" vertex="1">
                        <mxGeometry x="1020" y="480" width="120" height="60" as="geometry"/>
                    </mxCell>
                </object>
                <mxCell id="149" value="" style="endArrow=none;html=1;rounded=0;shadow=0;sketch=0;fontSize=13;strokeColor=default;jumpStyle=none;jumpSize=6;verticalAlign=middle;horizontal=1;endFill=0;entryX=1;entryY=0.5;entryDx=0;entryDy=0;exitX=0;exitY=0.5;exitDx=0;exitDy=0;" parent="1" source="124" target="148" edge="1">
                    <mxGeometry relative="1" as="geometry">
                        <mxPoint x="1180" y="450" as="sourcePoint"/>
                        <mxPoint x="1140" y="450" as="targetPoint"/>
                    </mxGeometry>
                </mxCell>
                <mxCell id="150" value="&lt;div style=&quot;font-size: 20px&quot;&gt;X&lt;/div&gt;" style="edgeLabel;resizable=0;html=1;align=center;verticalAlign=middle;fontSize=20;strokeColor=#630000;strokeWidth=1;fillColor=#FF0000;gradientColor=none;horizontal=1;labelBackgroundColor=none;direction=south;rotation=0;" parent="149" connectable="0" vertex="1">
                    <mxGeometry relative="1" as="geometry">
                        <mxPoint x="-2" y="-1" as="offset"/>
                    </mxGeometry>
                </mxCell>
                <mxCell id="151" value="" style="endArrow=none;html=1;rounded=0;shadow=0;sketch=0;fontSize=13;strokeColor=default;jumpStyle=none;jumpSize=6;verticalAlign=middle;horizontal=1;endFill=0;entryX=1;entryY=0.5;entryDx=0;entryDy=0;exitX=0;exitY=0.5;exitDx=0;exitDy=0;" parent="1" source="148" target="109" edge="1">
                    <mxGeometry relative="1" as="geometry">
                        <mxPoint x="1020" y="460" as="sourcePoint"/>
                        <mxPoint x="980" y="460" as="targetPoint"/>
                    </mxGeometry>
                </mxCell>
                <mxCell id="152" value="&lt;div style=&quot;font-size: 20px&quot;&gt;X&lt;/div&gt;" style="edgeLabel;resizable=0;html=1;align=center;verticalAlign=middle;fontSize=20;strokeColor=#630000;strokeWidth=1;fillColor=#FF0000;gradientColor=none;horizontal=1;labelBackgroundColor=none;direction=south;rotation=0;" parent="151" connectable="0" vertex="1">
                    <mxGeometry relative="1" as="geometry">
                        <mxPoint x="-2" y="-1" as="offset"/>
                    </mxGeometry>
                </mxCell>
                <object label="%name%&lt;font color=&quot;#ff0000&quot;&gt;%pk%&lt;/font&gt;&lt;br&gt;(%room%)" placeholders="1" name="Ungold's Cell" room="6065" tags="nomobs indoors nosummon" pk="" healrate="100" manarate="100" sector="Inside" id="153">
                    <mxCell style="rounded=0;whiteSpace=wrap;html=1;" parent="1" vertex="1">
                        <mxGeometry x="1020" y="380" width="120" height="60" as="geometry"/>
                    </mxCell>
                </object>
                <mxCell id="154" value="" style="endArrow=none;html=1;rounded=0;shadow=0;sketch=0;fontSize=13;strokeColor=default;jumpStyle=none;jumpSize=6;verticalAlign=middle;horizontal=1;endFill=0;entryX=1;entryY=0.5;entryDx=0;entryDy=0;exitX=0;exitY=0.5;exitDx=0;exitDy=0;" parent="1" source="122" target="153" edge="1">
                    <mxGeometry relative="1" as="geometry">
                        <mxPoint x="1180" y="465" as="sourcePoint"/>
                        <mxPoint x="1140" y="465" as="targetPoint"/>
                    </mxGeometry>
                </mxCell>
                <mxCell id="155" value="&lt;div style=&quot;font-size: 20px&quot;&gt;X&lt;/div&gt;" style="edgeLabel;resizable=0;html=1;align=center;verticalAlign=middle;fontSize=20;strokeColor=#630000;strokeWidth=1;fillColor=#FF0000;gradientColor=none;horizontal=1;labelBackgroundColor=none;direction=south;rotation=0;" parent="154" connectable="0" vertex="1">
                    <mxGeometry relative="1" as="geometry">
                        <mxPoint x="-2" y="-1" as="offset"/>
                    </mxGeometry>
                </mxCell>
                <mxCell id="156" value="" style="endArrow=none;html=1;rounded=0;shadow=0;sketch=0;fontSize=13;strokeColor=default;jumpStyle=none;jumpSize=6;verticalAlign=middle;horizontal=1;endFill=0;entryX=1;entryY=0.5;entryDx=0;entryDy=0;exitX=0;exitY=0.5;exitDx=0;exitDy=0;" parent="1" source="153" target="114" edge="1">
                    <mxGeometry relative="1" as="geometry">
                        <mxPoint x="1025" y="465" as="sourcePoint"/>
                        <mxPoint x="985" y="465" as="targetPoint"/>
                    </mxGeometry>
                </mxCell>
                <mxCell id="157" value="&lt;div style=&quot;font-size: 20px&quot;&gt;X&lt;/div&gt;" style="edgeLabel;resizable=0;html=1;align=center;verticalAlign=middle;fontSize=20;strokeColor=#630000;strokeWidth=1;fillColor=#FF0000;gradientColor=none;horizontal=1;labelBackgroundColor=none;direction=south;rotation=0;" parent="156" connectable="0" vertex="1">
                    <mxGeometry relative="1" as="geometry">
                        <mxPoint x="-2" y="-1" as="offset"/>
                    </mxGeometry>
                </mxCell>
                <object label="%name%&lt;font color=&quot;#ff0000&quot;&gt;%pk%&lt;/font&gt;&lt;br&gt;(%room%)" placeholders="1" name="The Throne Room of Rauko'ra" room="6069" tags="nomobs indoors nosummon" pk="" healrate="100" manarate="100" sector="Inside" id="158">
                    <mxCell style="rounded=0;whiteSpace=wrap;html=1;" parent="1" vertex="1">
                        <mxGeometry x="1340" y="580" width="120" height="60" as="geometry"/>
                    </mxCell>
                </object>
                <mxCell id="160" value="&lt;div style=&quot;font-size: 20px&quot;&gt;X&lt;/div&gt;" style="edgeLabel;resizable=0;html=1;align=center;verticalAlign=middle;fontSize=20;strokeColor=#630000;strokeWidth=1;fillColor=#FF0000;gradientColor=none;horizontal=1;labelBackgroundColor=none;direction=south;rotation=0;" parent="1" connectable="0" vertex="1">
                    <mxGeometry x="1173" y="559" as="geometry"/>
                </mxCell>
                <mxCell id="162" style="edgeStyle=none;rounded=0;jumpStyle=arc;html=1;exitX=0.25;exitY=0;exitDx=0;exitDy=0;entryX=0.75;entryY=1;entryDx=0;entryDy=0;endArrow=classic;endFill=1;" parent="1" source="161" target="48" edge="1">
                    <mxGeometry relative="1" as="geometry"/>
                </mxCell>
                <object label="%name%&lt;font color=&quot;#ff0000&quot;&gt;%pk%&lt;/font&gt;&lt;br&gt;(%room%)" placeholders="1" name="Before the Iron Gates of the Citadel" room="6052" tags="nosummon outdoors" pk="" healrate="100" manarate="100" sector="Mountain" id="161">
                    <mxCell style="rounded=0;whiteSpace=wrap;html=1;" parent="1" vertex="1">
                        <mxGeometry x="280" y="880" width="120" height="60" as="geometry"/>
                    </mxCell>
                </object>
                <mxCell id="41" value="&lt;font style=&quot;font-size: 11px&quot; color=&quot;#0000ff&quot;&gt;&lt;b&gt;say let me out&lt;/b&gt;&lt;/font&gt;" style="text;html=1;strokeColor=none;fillColor=none;align=center;verticalAlign=middle;whiteSpace=wrap;rounded=0;" parent="1" vertex="1">
                    <mxGeometry x="220" y="825" width="120" height="15" as="geometry"/>
                </mxCell>
                <mxCell id="163" value="&lt;font style=&quot;font-size: 11px&quot; color=&quot;#0000ff&quot;&gt;&lt;b&gt;(say let me out)&lt;/b&gt;&lt;/font&gt;" style="text;html=1;strokeColor=none;fillColor=none;align=center;verticalAlign=middle;whiteSpace=wrap;rounded=0;" parent="1" vertex="1">
                    <mxGeometry x="280" y="927" width="120" height="15" as="geometry"/>
                </mxCell>
                <mxCell id="164" value="&lt;b&gt;&lt;font style=&quot;font-size: 13px&quot;&gt;The Mountains&lt;br&gt;of Desolation&lt;/font&gt;&lt;/b&gt;" style="text;html=1;strokeColor=none;fillColor=none;align=center;verticalAlign=middle;whiteSpace=wrap;rounded=0;" parent="1" vertex="1">
                    <mxGeometry x="95" y="870" width="110" height="35" as="geometry"/>
                </mxCell>
                <mxCell id="165" value="" style="endArrow=classic;html=1;exitX=1;exitY=0.5;exitDx=0;exitDy=0;entryX=0.25;entryY=1;entryDx=0;entryDy=0;shape=flexArrow;edgeStyle=orthogonalEdgeStyle;fillColor=#333333;gradientColor=#666666;" parent="1" source="164" target="41" edge="1">
                    <mxGeometry width="50" height="50" relative="1" as="geometry">
                        <mxPoint x="-170" y="470" as="sourcePoint"/>
                        <mxPoint x="245" y="865" as="targetPoint"/>
                    </mxGeometry>
                </mxCell>
                <mxCell id="170" value="" style="endArrow=none;html=1;rounded=0;shadow=0;sketch=0;strokeColor=default;jumpStyle=none;entryX=1;entryY=0;entryDx=0;entryDy=0;endFill=0;exitX=0;exitY=1;exitDx=0;exitDy=0;" parent="1" source="172" target="116" edge="1">
                    <mxGeometry relative="1" as="geometry">
                        <mxPoint x="805" y="305" as="sourcePoint"/>
                        <mxPoint x="850" y="245" as="targetPoint"/>
                    </mxGeometry>
                </mxCell>
                <mxCell id="171" value="" style="shape=mxgraph.office.security.lock_protected;html=1;outlineConnect=0;strokeColor=default;strokeWidth=1;fillColor=#FFFF00;" parent="170" vertex="1">
                    <mxGeometry width="15" height="20" relative="1" as="geometry">
                        <mxPoint x="-7" y="-10" as="offset"/>
                    </mxGeometry>
                </mxCell>
                <mxCell id="172" value="B" style="ellipse;whiteSpace=wrap;html=1;aspect=fixed;strokeColor=#000000;strokeWidth=1;fillColor=none;gradientColor=none;" parent="1" vertex="1">
                    <mxGeometry x="1000" y="240" width="20" height="20" as="geometry"/>
                </mxCell>
                <mxCell id="173" value="" style="endArrow=none;html=1;rounded=0;shadow=0;sketch=0;strokeColor=default;jumpStyle=none;entryX=1;entryY=0;entryDx=0;entryDy=0;endFill=0;exitX=0;exitY=1;exitDx=0;exitDy=0;" parent="1" source="175" target="120" edge="1">
                    <mxGeometry relative="1" as="geometry">
                        <mxPoint x="1150" y="305" as="sourcePoint"/>
                        <mxPoint x="1325" y="280" as="targetPoint"/>
                    </mxGeometry>
                </mxCell>
                <mxCell id="174" value="" style="shape=mxgraph.office.security.lock_protected;html=1;outlineConnect=0;strokeColor=default;strokeWidth=1;fillColor=#FFFF00;" parent="173" vertex="1">
                    <mxGeometry width="15" height="20" relative="1" as="geometry">
                        <mxPoint x="-7" y="-10" as="offset"/>
                    </mxGeometry>
                </mxCell>
                <mxCell id="175" value="C" style="ellipse;whiteSpace=wrap;html=1;aspect=fixed;strokeColor=#000000;strokeWidth=1;fillColor=none;gradientColor=none;" parent="1" vertex="1">
                    <mxGeometry x="1320" y="240" width="20" height="20" as="geometry"/>
                </mxCell>
                <mxCell id="176" value="" style="endArrow=none;html=1;rounded=0;shadow=0;sketch=0;strokeColor=default;jumpStyle=none;entryX=1;entryY=0;entryDx=0;entryDy=0;endFill=0;exitX=0;exitY=1;exitDx=0;exitDy=0;" parent="1" source="178" target="131" edge="1">
                    <mxGeometry relative="1" as="geometry">
                        <mxPoint x="1180" y="710" as="sourcePoint"/>
                        <mxPoint x="1330" y="685" as="targetPoint"/>
                    </mxGeometry>
                </mxCell>
                <mxCell id="177" value="" style="shape=mxgraph.office.security.lock_protected;html=1;outlineConnect=0;strokeColor=default;strokeWidth=1;fillColor=#FFFF00;" parent="176" vertex="1">
                    <mxGeometry width="15" height="20" relative="1" as="geometry">
                        <mxPoint x="-7" y="-10" as="offset"/>
                    </mxGeometry>
                </mxCell>
                <mxCell id="178" value="D" style="ellipse;whiteSpace=wrap;html=1;aspect=fixed;strokeColor=#000000;strokeWidth=1;fillColor=none;gradientColor=none;" parent="1" vertex="1">
                    <mxGeometry x="1320" y="640" width="20" height="20" as="geometry"/>
                </mxCell>
                <mxCell id="179" value="" style="endArrow=none;html=1;rounded=0;shadow=0;sketch=0;strokeColor=default;jumpStyle=none;entryX=1;entryY=0;entryDx=0;entryDy=0;endFill=0;exitX=0;exitY=1;exitDx=0;exitDy=0;" parent="1" source="181" target="106" edge="1">
                    <mxGeometry relative="1" as="geometry">
                        <mxPoint x="870" y="710" as="sourcePoint"/>
                        <mxPoint x="990" y="680" as="targetPoint"/>
                    </mxGeometry>
                </mxCell>
                <mxCell id="180" value="" style="shape=mxgraph.office.security.lock_protected;html=1;outlineConnect=0;strokeColor=default;strokeWidth=1;fillColor=#FFFF00;" parent="179" vertex="1">
                    <mxGeometry width="15" height="20" relative="1" as="geometry">
                        <mxPoint x="-7" y="-10" as="offset"/>
                    </mxGeometry>
                </mxCell>
                <mxCell id="181" value="A" style="ellipse;whiteSpace=wrap;html=1;aspect=fixed;strokeColor=#000000;strokeWidth=1;fillColor=none;gradientColor=none;" parent="1" vertex="1">
                    <mxGeometry x="1000" y="640" width="20" height="20" as="geometry"/>
                </mxCell>
                <object label="%name%&lt;font color=&quot;#ff0000&quot;&gt;%pk%&lt;/font&gt;&lt;br&gt;(%room%)" placeholders="1" name="Chamber of Loot" room="6053" tags="indoors nosummon" pk="" healrate="0" manarate="0" sector="Inside" id="182">
                    <mxCell style="rounded=0;whiteSpace=wrap;html=1;" parent="1" vertex="1">
                        <mxGeometry x="1020" y="180" width="120" height="60" as="geometry"/>
                    </mxCell>
                </object>
                <mxCell id="183" value="" style="endArrow=none;html=1;rounded=0;shadow=0;sketch=0;fontSize=13;strokeColor=default;jumpStyle=none;jumpSize=6;verticalAlign=middle;horizontal=1;endFill=0;entryX=0.5;entryY=1;entryDx=0;entryDy=0;exitX=0.5;exitY=0;exitDx=0;exitDy=0;" parent="1" source="118" target="182" edge="1">
                    <mxGeometry relative="1" as="geometry">
                        <mxPoint x="1175" y="270" as="sourcePoint"/>
                        <mxPoint x="1175" y="230" as="targetPoint"/>
                    </mxGeometry>
                </mxCell>
                <mxCell id="184" value="&lt;div style=&quot;font-size: 20px&quot;&gt;X&lt;/div&gt;" style="edgeLabel;resizable=0;html=1;align=center;verticalAlign=middle;fontSize=20;strokeColor=#630000;strokeWidth=1;fillColor=#FF0000;gradientColor=none;horizontal=1;labelBackgroundColor=none;direction=south;rotation=90;" parent="183" connectable="0" vertex="1">
                    <mxGeometry relative="1" as="geometry">
                        <mxPoint x="2" y="-1" as="offset"/>
                    </mxGeometry>
                </mxCell>
                <object label="%name%&lt;font color=&quot;#ff0000&quot;&gt;%pk%&lt;/font&gt;&lt;br&gt;(%room%)" placeholders="1" name="The Throne Room of Rauko'ra" room="6047" tags="indoors norecall nosummon" pk="" healrate="0" manarate="0" sector="Inside" id="185">
                    <mxCell style="rounded=0;whiteSpace=wrap;html=1;" parent="1" vertex="1">
                        <mxGeometry x="1180" y="780" width="120" height="60" as="geometry"/>
                    </mxCell>
                </object>
                <object label="%name%&lt;font color=&quot;#ff0000&quot;&gt;%pk%&lt;/font&gt;&lt;br&gt;(%room%)" placeholders="1" name="A Very Tight Passage" room="6068" tags="indoors prison pk nosummon" pk="&#10;[**&gt; PK &lt;**]" healrate="100" manarate="100" sector="Inside" id="186">
                    <mxCell style="rounded=0;whiteSpace=wrap;html=1;" parent="1" vertex="1">
                        <mxGeometry x="1340" y="880" width="120" height="60" as="geometry"/>
                    </mxCell>
                </object>
                <mxCell id="187" value="" style="endArrow=none;html=1;rounded=0;shadow=0;sketch=0;strokeColor=default;jumpStyle=none;exitX=1;exitY=1;exitDx=0;exitDy=0;entryX=0;entryY=0;entryDx=0;entryDy=0;endFill=0;" parent="1" source="185" target="186" edge="1">
                    <mxGeometry relative="1" as="geometry">
                        <mxPoint x="1015" y="700" as="sourcePoint"/>
                        <mxPoint x="1195" y="700" as="targetPoint"/>
                    </mxGeometry>
                </mxCell>
                <mxCell id="188" value="" style="shape=mxgraph.office.security.lock_protected;html=1;outlineConnect=0;strokeColor=default;strokeWidth=1;fillColor=#0000FF;" parent="187" vertex="1">
                    <mxGeometry width="15" height="20" relative="1" as="geometry">
                        <mxPoint x="-7" y="-10" as="offset"/>
                    </mxGeometry>
                </mxCell>
                <mxCell id="189" value="" style="sketch=0;pointerEvents=1;shadow=0;dashed=0;html=1;labelPosition=center;verticalLabelPosition=bottom;verticalAlign=top;outlineConnect=0;align=center;shape=mxgraph.office.security.key_permissions;strokeWidth=1;direction=south;strokeColor=#000000;fillColor=#0000FF;" parent="1" vertex="1">
                    <mxGeometry x="1271.995" y="777.005" width="25" height="11.79" as="geometry"/>
                </mxCell>
                <object label="%name%&lt;font color=&quot;#ff0000&quot;&gt;%pk%&lt;/font&gt;&lt;br&gt;(%room%)" placeholders="1" name="The Lair of the Ranah" room="6067" tags="nomobs indoors pk nosummon" pk="&#10;[**&gt; PK &lt;**]" healrate="100" manarate="100" sector="Inside" id="190">
                    <mxCell style="rounded=0;whiteSpace=wrap;html=1;strokeColor=#FF0000;strokeWidth=2;" parent="1" vertex="1">
                        <mxGeometry x="1340" y="780" width="120" height="60" as="geometry"/>
                    </mxCell>
                </object>
                <mxCell id="191" value="" style="endArrow=none;html=1;rounded=0;shadow=0;sketch=0;strokeColor=default;jumpStyle=none;exitX=0.5;exitY=1;exitDx=0;exitDy=0;entryX=0.5;entryY=0;entryDx=0;entryDy=0;endFill=0;" parent="1" source="190" target="186" edge="1">
                    <mxGeometry relative="1" as="geometry">
                        <mxPoint x="1135" y="700" as="sourcePoint"/>
                        <mxPoint x="1315" y="700" as="targetPoint"/>
                    </mxGeometry>
                </mxCell>
                <mxCell id="192" value="" style="shape=mxgraph.office.security.lock_protected;html=1;outlineConnect=0;strokeColor=default;strokeWidth=1;fillColor=#0000FF;" parent="191" vertex="1">
                    <mxGeometry width="15" height="20" relative="1" as="geometry">
                        <mxPoint x="-7" y="-10" as="offset"/>
                    </mxGeometry>
                </mxCell>
                <object label="%name%&lt;font color=&quot;#ff0000&quot;&gt;%pk%&lt;/font&gt;&lt;br&gt;(%room%)" placeholders="1" name="The Rim of a Volcano" room="6051" tags="nomobs nosummon outdoors" pk="" healrate="0" manarate="0" sector="Mountain" id="193">
                    <mxCell style="rounded=0;whiteSpace=wrap;html=1;" parent="1" vertex="1">
                        <mxGeometry x="1340" y="680" width="120" height="60" as="geometry"/>
                    </mxCell>
                </object>
                <mxCell id="195" value="&lt;font style=&quot;font-size: 11px&quot; color=&quot;#0000ff&quot;&gt;&lt;b&gt;*surrender raukora&lt;/b&gt;&lt;/font&gt;" style="text;html=1;strokeColor=none;fillColor=none;align=center;verticalAlign=middle;whiteSpace=wrap;rounded=0;" parent="1" vertex="1">
                    <mxGeometry x="1340" y="640" width="120" height="15" as="geometry"/>
                </mxCell>
                <mxCell id="196" value="&lt;font style=&quot;font-size: 11px&quot; color=&quot;#0000ff&quot;&gt;&lt;b&gt;(*surrender raukora)&lt;/b&gt;&lt;/font&gt;" style="text;html=1;strokeColor=none;fillColor=none;align=center;verticalAlign=middle;whiteSpace=wrap;rounded=0;" parent="1" vertex="1">
                    <mxGeometry x="1340" y="725" width="120" height="15" as="geometry"/>
                </mxCell>
                <mxCell id="197" value="&lt;font style=&quot;font-size: 11px&quot; color=&quot;#0000ff&quot;&gt;&lt;b&gt;(kill raukora)&lt;/b&gt;&lt;/font&gt;" style="text;html=1;strokeColor=none;fillColor=none;align=center;verticalAlign=middle;whiteSpace=wrap;rounded=0;" parent="1" vertex="1">
                    <mxGeometry x="1180" y="840" width="120" height="15" as="geometry"/>
                </mxCell>
                <mxCell id="198" value="&lt;div style=&quot;font-size: 32px&quot;&gt;The Blood Opal of Rauko'ra&lt;/div&gt;" style="text;html=1;strokeColor=none;fillColor=none;align=center;verticalAlign=middle;whiteSpace=wrap;rounded=0;fontSize=32;fontColor=#000000;" parent="1" vertex="1">
                    <mxGeometry x="20" y="20" width="400" height="30" as="geometry"/>
                </mxCell>
                <mxCell id="199" value="&lt;font style=&quot;font-size: 20px&quot; face=&quot;Tahoma&quot;&gt;Level Range: 125 - 201 (Lock: 100)&lt;/font&gt;" style="text;html=1;strokeColor=none;fillColor=none;align=left;verticalAlign=middle;whiteSpace=wrap;rounded=0;" parent="1" vertex="1">
                    <mxGeometry x="25" y="67" width="405" height="20" as="geometry"/>
                </mxCell>
                <mxCell id="200" value="&lt;font style=&quot;font-size: 20px&quot; face=&quot;Tahoma&quot;&gt;Area Creators: Lumina, Vesse &amp;amp; Galadriel&lt;/font&gt;" style="text;html=1;strokeColor=none;fillColor=none;align=left;verticalAlign=middle;whiteSpace=wrap;rounded=0;" parent="1" vertex="1">
                    <mxGeometry x="25" y="97" width="380" height="20" as="geometry"/>
                </mxCell>
                <mxCell id="213" value="&lt;font face=&quot;Helvetica&quot;&gt;&lt;b&gt;For golden key&lt;/b&gt;: Kill a tower guard for their key and open the chest in the room, each watchtower's chest contains a copy of the key.&lt;/font&gt;" style="text;html=1;strokeColor=default;fillColor=default;align=left;verticalAlign=middle;whiteSpace=wrap;rounded=0;fontFamily=Tahoma;spacing=8;dashed=1;" parent="1" vertex="1">
                    <mxGeometry x="540" y="280" width="160" height="105" as="geometry"/>
                </mxCell>
                <mxCell id="214" value="glass key on ground here after killing Rauko'ra" style="text;html=1;strokeColor=none;fillColor=none;align=center;verticalAlign=middle;whiteSpace=wrap;rounded=0;dashed=1;fontFamily=Helvetica;" parent="1" vertex="1">
                    <mxGeometry x="1165" y="855" width="145" height="30" as="geometry"/>
                </mxCell>
                <mxCell id="240" value="" style="rounded=0;whiteSpace=wrap;html=1;fontSize=13;strokeWidth=1;fillColor=default;" vertex="1" parent="1">
                    <mxGeometry x="1015" y="20" width="445" height="130" as="geometry"/>
                </mxCell>
                <mxCell id="241" value="" style="rounded=0;whiteSpace=wrap;html=1;fontSize=13;strokeWidth=2;fillColor=#FFFFFF;strokeColor=#FF0000;container=0;" vertex="1" parent="1">
                    <mxGeometry x="1030" y="30" width="40" height="25" as="geometry"/>
                </mxCell>
                <mxCell id="242" value="" style="endArrow=none;html=1;rounded=0;shadow=0;sketch=0;fontSize=13;jumpStyle=none;jumpSize=6;verticalAlign=middle;horizontal=1;endFill=0;fillColor=none;gradientColor=none;strokeColor=#000000;" edge="1" parent="1">
                    <mxGeometry relative="1" as="geometry">
                        <mxPoint x="1030" y="72" as="sourcePoint"/>
                        <mxPoint x="1070" y="72" as="targetPoint"/>
                    </mxGeometry>
                </mxCell>
                <mxCell id="243" value="&lt;div style=&quot;font-size: 20px;&quot;&gt;|&lt;/div&gt;" style="edgeLabel;resizable=0;html=1;align=center;verticalAlign=middle;fontSize=20;strokeColor=#630000;strokeWidth=1;fillColor=#FF0000;gradientColor=none;horizontal=1;labelBackgroundColor=none;direction=south;rotation=0;container=0;" connectable="0" vertex="1" parent="242">
                    <mxGeometry relative="1" as="geometry">
                        <mxPoint x="-2" y="-3" as="offset"/>
                    </mxGeometry>
                </mxCell>
                <mxCell id="244" value="" style="endArrow=none;html=1;rounded=0;shadow=0;sketch=0;fontSize=13;jumpStyle=none;jumpSize=6;verticalAlign=middle;horizontal=1;endFill=0;fillColor=none;gradientColor=none;strokeColor=#000000;" edge="1" parent="1">
                    <mxGeometry relative="1" as="geometry">
                        <mxPoint x="1030" y="101" as="sourcePoint"/>
                        <mxPoint x="1070" y="101" as="targetPoint"/>
                    </mxGeometry>
                </mxCell>
                <mxCell id="245" value="&lt;div style=&quot;font-size: 20px&quot;&gt;X&lt;/div&gt;" style="edgeLabel;resizable=0;html=1;align=center;verticalAlign=middle;fontSize=20;strokeColor=#630000;strokeWidth=1;fillColor=#FF0000;gradientColor=none;horizontal=1;labelBackgroundColor=none;direction=south;rotation=0;container=0;" connectable="0" vertex="1" parent="244">
                    <mxGeometry relative="1" as="geometry">
                        <mxPoint x="-2" y="-1" as="offset"/>
                    </mxGeometry>
                </mxCell>
                <mxCell id="246" value="" style="endArrow=classic;html=1;fontSize=13;strokeColor=#000000;fillColor=none;gradientColor=none;endFill=1;" edge="1" parent="1">
                    <mxGeometry width="50" height="50" relative="1" as="geometry">
                        <mxPoint x="1030" y="130" as="sourcePoint"/>
                        <mxPoint x="1070" y="130" as="targetPoint"/>
                    </mxGeometry>
                </mxCell>
                <mxCell id="247" value="Room with aggressive mobs" style="text;html=1;strokeColor=none;fillColor=none;align=left;verticalAlign=middle;whiteSpace=wrap;rounded=0;fontSize=13;container=0;" vertex="1" parent="1">
                    <mxGeometry x="1075" y="32.5" width="210" height="20" as="geometry"/>
                </mxCell>
                <mxCell id="248" value="Door - can pass w/ pass door" style="text;html=1;strokeColor=none;fillColor=none;align=left;verticalAlign=middle;whiteSpace=wrap;rounded=0;fontSize=13;container=0;" vertex="1" parent="1">
                    <mxGeometry x="1075" y="62" width="210" height="20" as="geometry"/>
                </mxCell>
                <mxCell id="249" value="Door - cannot pass" style="text;html=1;strokeColor=none;fillColor=none;align=left;verticalAlign=middle;whiteSpace=wrap;rounded=0;fontSize=13;container=0;" vertex="1" parent="1">
                    <mxGeometry x="1075" y="92" width="210" height="20" as="geometry"/>
                </mxCell>
                <mxCell id="250" value="Exit is one-way only" style="text;html=1;strokeColor=none;fillColor=none;align=left;verticalAlign=middle;whiteSpace=wrap;rounded=0;fontSize=13;container=0;" vertex="1" parent="1">
                    <mxGeometry x="1075" y="120" width="210" height="20" as="geometry"/>
                </mxCell>
                <mxCell id="253" value="" style="sketch=0;pointerEvents=1;shadow=0;dashed=0;html=1;labelPosition=center;verticalLabelPosition=bottom;verticalAlign=top;outlineConnect=0;align=center;shape=mxgraph.office.security.key_permissions;strokeWidth=1;direction=south;strokeColor=#000000;fillColor=#000000;" vertex="1" parent="1">
                    <mxGeometry x="1272.4950000000001" y="36.11500000000001" width="25" height="11.79" as="geometry"/>
                </mxCell>
                <mxCell id="254" value="Key location" style="text;html=1;strokeColor=none;fillColor=none;align=left;verticalAlign=middle;whiteSpace=wrap;rounded=0;fontSize=13;container=0;" vertex="1" parent="1">
                    <mxGeometry x="1310" y="32" width="115" height="20" as="geometry"/>
                </mxCell>
                <mxCell id="255" value="" style="endArrow=none;html=1;rounded=0;shadow=0;sketch=0;strokeColor=default;jumpStyle=none;endFill=0;fontFamily=Helvetica;fontColor=#000000;" edge="1" parent="1">
                    <mxGeometry relative="1" as="geometry">
                        <mxPoint x="1265" y="67" as="sourcePoint"/>
                        <mxPoint x="1305" y="67" as="targetPoint"/>
                    </mxGeometry>
                </mxCell>
                <mxCell id="256" value="" style="shape=mxgraph.office.security.lock_protected;html=1;outlineConnect=0;strokeColor=default;strokeWidth=1;fillColor=#000000;fontFamily=Helvetica;fontColor=#000000;" vertex="1" parent="255">
                    <mxGeometry width="15" height="20" relative="1" as="geometry">
                        <mxPoint x="-7" y="-10" as="offset"/>
                    </mxGeometry>
                </mxCell>
                <mxCell id="257" value="Locked door" style="text;html=1;strokeColor=none;fillColor=none;align=left;verticalAlign=middle;whiteSpace=wrap;rounded=0;fontSize=13;container=0;" vertex="1" parent="1">
                    <mxGeometry x="1310" y="57" width="125" height="20" as="geometry"/>
                </mxCell>
                <mxCell id="258" value="&lt;font style=&quot;font-size: 11px&quot; color=&quot;#0000ff&quot;&gt;&lt;b&gt;exit&lt;/b&gt;&lt;/font&gt;" style="text;html=1;strokeColor=none;fillColor=none;align=center;verticalAlign=middle;whiteSpace=wrap;rounded=0;" vertex="1" parent="1">
                    <mxGeometry x="1265" y="84.5" width="40" height="15" as="geometry"/>
                </mxCell>
                <mxCell id="259" value="Custom exit command" style="text;html=1;strokeColor=none;fillColor=none;align=left;verticalAlign=middle;whiteSpace=wrap;rounded=0;fontSize=13;container=0;" vertex="1" parent="1">
                    <mxGeometry x="1310" y="82" width="140" height="20" as="geometry"/>
                </mxCell>
                <mxCell id="260" value="&lt;font style=&quot;font-size: 11px&quot; color=&quot;#0000ff&quot;&gt;&lt;b&gt;(exit)&lt;/b&gt;&lt;/font&gt;" style="text;html=1;strokeColor=none;fillColor=none;align=center;verticalAlign=middle;whiteSpace=wrap;rounded=0;" vertex="1" parent="1">
                    <mxGeometry x="1265" y="109.5" width="40" height="15" as="geometry"/>
                </mxCell>
                <mxCell id="261" value="Custom exit destination" style="text;html=1;strokeColor=none;fillColor=none;align=left;verticalAlign=middle;whiteSpace=wrap;rounded=0;fontSize=13;container=0;" vertex="1" parent="1">
                    <mxGeometry x="1310" y="107" width="145" height="20" as="geometry"/>
                </mxCell>
                <mxCell id="264" value="mapped by Nohh" style="text;html=1;strokeColor=none;fillColor=none;align=right;verticalAlign=middle;whiteSpace=wrap;rounded=0;fontSize=11;fontStyle=0;fontFamily=Helvetica;" vertex="1" parent="1">
                    <mxGeometry x="1351" y="136" width="109" height="14" as="geometry"/>
                </mxCell>
            </root>
        </mxGraphModel>
    </diagram>
</mxfile>